<?xml version="1.0" standalone="no"?>
<!DOCTYPE svg PUBLIC "-//W3C//DTD SVG 20010904//EN"
 "http://www.w3.org/TR/2001/REC-SVG-20010904/DTD/svg10.dtd">
<svg version="1.0" xmlns="http://www.w3.org/2000/svg"
 width="512.000000pt" height="512.000000pt" viewBox="0 0 512.000000 512.000000"
 preserveAspectRatio="xMidYMid meet">

<g transform="translate(0.000000,512.000000) scale(0.100000,-0.100000)"
fill="#000000" stroke="none">
<path d="M2375 4899 c-782 -64 -1478 -510 -1864 -1196 -324 -576 -385 -1281
-167 -1912 116 -333 289 -611 540 -869 705 -723 1792 -913 2701 -472 491 239
898 659 1115 1150 358 809 242 1724 -306 2422 -129 164 -385 396 -564 510
-199 127 -446 236 -665 293 -166 44 -277 62 -445 75 -150 11 -199 11 -345 -1z
m490 -443 c202 -36 347 -83 524 -167 740 -354 1173 -1138 1076 -1949 -79 -665
-485 -1230 -1090 -1516 -522 -246 -1120 -244 -1644 7 -399 191 -709 502 -900
900 -85 177 -129 318 -168 529 -24 133 -24 467 0 600 39 211 83 352 168 529
286 598 847 997 1519 1080 107 14 408 6 515 -13z"/>
<path d="M2509 3621 c-63 -21 -110 -57 -137 -106 -15 -26 -18 -80 -22 -385
l-5 -355 -355 -5 c-305 -4 -359 -7 -385 -22 -145 -80 -145 -296 0 -376 26 -15
80 -18 385 -22 l355 -5 5 -355 c5 -383 6 -386 62 -436 99 -90 246 -75 323 34
l30 44 5 356 5 357 357 5 356 5 44 30 c109 77 124 224 34 323 -50 56 -53 57
-436 62 l-355 5 -5 355 c-5 383 -6 386 -62 436 -52 48 -143 73 -199 55z"/>
</g>
</svg>
