<?xml version="1.0" standalone="no"?>
<!DOCTYPE svg PUBLIC "-//W3C//DTD SVG 20010904//EN"
 "http://www.w3.org/TR/2001/REC-SVG-20010904/DTD/svg10.dtd">
<svg version="1.0" xmlns="http://www.w3.org/2000/svg"
 width="512.000000pt" height="512.000000pt" viewBox="0 0 512.000000 512.000000"
 preserveAspectRatio="xMidYMid meet">

<g transform="translate(0.000000,512.000000) scale(0.100000,-0.100000)"
fill="#000000" stroke="none">
<path d="M610 4234 c-208 -44 -381 -209 -435 -414 -13 -47 -15 -232 -15 -1209
0 -1272 -3 -1210 63 -1336 18 -34 63 -92 103 -133 57 -57 90 -81 156 -111 45
-22 110 -44 142 -50 42 -8 630 -11 1935 -11 2059 0 1944 -3 2078 61 86 40 204
157 251 245 71 136 67 61 67 1334 0 1273 4 1198 -67 1334 -48 91 -159 198
-250 241 -144 69 -15 65 -2088 64 -1569 0 -1886 -3 -1940 -15z m3911 -245 c31
-15 75 -43 98 -64 42 -39 107 -155 98 -177 -4 -12 -2147 -1212 -2162 -1211 -8
1 -2148 1192 -2158 1202 -13 13 29 109 68 156 41 51 108 93 174 111 36 10 459
12 1936 11 l1890 -2 56 -26z m-3075 -1100 c765 -427 1070 -592 1099 -596 39
-5 94 25 1110 591 l1070 596 3 -967 c2 -689 0 -985 -8 -1028 -22 -117 -89
-202 -199 -254 l-56 -26 -1880 -3 c-1294 -1 -1896 1 -1931 8 -107 22 -209 112
-251 220 -17 42 -18 119 -21 1048 -1 551 -1 1002 2 1002 2 0 480 -266 1062
-591z"/>
</g>
</svg>
